<svg xmlns="http://www.w3.org/2000/svg" data-name="Layer 2" viewBox="0 0 64 80" x="0px" y="0px"><title>transportation-vehicle</title><path d="M15.92,34.4a4.83,4.83,0,1,0,4.83,4.83A4.83,4.83,0,0,0,15.92,34.4Zm0,7.06a2.23,2.23,0,1,1,2.23-2.23A2.23,2.23,0,0,1,15.92,41.46Z"/><path d="M47,34.4a4.83,4.83,0,1,0,4.83,4.83A4.83,4.83,0,0,0,47,34.4Zm0,7.06a2.23,2.23,0,1,1,2.23-2.23A2.23,2.23,0,0,1,47,41.46Z"/><polygon points="52.52 30.18 53.07 31.15 56.19 32.41 55.73 31.19 52.52 30.18"/><path d="M7,30.12l.22-.52h0a.22.22,0,0,0,0-.19.18.18,0,0,0-.17-.09H5.69l0,1,1.16-.1A.19.19,0,0,0,7,30.12Z"/><path d="M59.84,33.76l-1.22-1.14v-1.2A2.5,2.5,0,0,0,57,29.07l-6.06-2.15a8.8,8.8,0,0,0-3-.52H46l-7.12-4.48a12.85,12.85,0,0,0-6.85-2H24a12.87,12.87,0,0,0-6.66,1.86L10.4,26l-3.27.32a2.53,2.53,0,0,0-2.25,2.18.52.52,0,0,1,.29-.14H7.08a1.17,1.17,0,0,1,1,.54A1.16,1.16,0,0,1,8.17,30L8,30.5a1.21,1.21,0,0,1-1,.72l-1.66.14h0a.47.47,0,0,1-.31-.12l0,.64-.9,1.69A.46.46,0,0,0,4,33.8v2.58A2.4,2.4,0,0,0,5.72,38.7L9,39.7l.15,0H10a.49.49,0,0,0,.49-.49,5.46,5.46,0,0,1,10.92,0,.49.49,0,0,0,.49.49H41a.49.49,0,0,0,.49-.49,5.46,5.46,0,0,1,10.92,0,.49.49,0,0,0,.49.49h.52l4.62-1.13A2.51,2.51,0,0,0,60,36.13v-2A.48.48,0,0,0,59.84,33.76ZM29.27,28.81h2.37a.49.49,0,0,1,0,1H29.27a.49.49,0,0,1,0-1Zm-9.51.78h-2.7a.5.5,0,0,1,0-1h2.7a.5.5,0,0,1,0,1Zm-3.07-2.22a.49.49,0,0,1-.41-.74c.09-.15,2.14-3.49,3.75-4.35,1.25-.68,5-.76,7.1-.76a.49.49,0,0,1,.5.49v5.08a.53.53,0,0,1-.15.36.5.5,0,0,1-.35.14h0ZM39,37.32H23.5a.49.49,0,0,1,0-1H39a.49.49,0,1,1,0,1Zm4.55-9.24a.49.49,0,0,1-.45.29h0l-9.56-.65-4.12-.09a.48.48,0,0,1-.48-.49V22.05a.49.49,0,0,1,.15-.36.45.45,0,0,1,.35-.13c1.33,0,2.6.12,3.77.22,5,.45,10.06,5.54,10.27,5.75A.49.49,0,0,1,43.59,28.08Zm13.29,5a1,1,0,0,1-1.05.21L52.7,32.06a.94.94,0,0,1-.49-.43l-1.16-2.05A.48.48,0,0,1,51.1,29a.49.49,0,0,1,.53-.16L56,30.25a1,1,0,0,1,.63.59l.45,1.23A1,1,0,0,1,56.88,33.11Z"/><text x="0" y="79" fill="#000000" font-size="5px" font-weight="bold" font-family="'Helvetica Neue', Helvetica, Arial-Unicode, Arial, Sans-serif">Created by Ladalle CS</text><text x="0" y="84" fill="#000000" font-size="5px" font-weight="bold" font-family="'Helvetica Neue', Helvetica, Arial-Unicode, Arial, Sans-serif">from the Noun Project</text></svg>