<svg xmlns="http://www.w3.org/2000/svg" viewBox="0 0 32 40" x="0px" y="0px"><title>Half moon</title><g data-name="Half Moon"><path d="M29.7,18.62a1,1,0,0,0-1-.25,12,12,0,0,1-3.3.46A12.26,12.26,0,0,1,13.17,6.58a12,12,0,0,1,.46-3.3A1,1,0,0,0,12.4,2,14.25,14.25,0,1,0,30,19.6,1,1,0,0,0,29.7,18.62ZM16.25,28A12.25,12.25,0,0,1,11.32,4.54a14.24,14.24,0,0,0,14.1,16.29,14.11,14.11,0,0,0,2-.15A12.27,12.27,0,0,1,16.25,28Z"/></g><text x="0" y="47" fill="#000000" font-size="5px" font-weight="bold" font-family="'Helvetica Neue', Helvetica, Arial-Unicode, Arial, Sans-serif">Created by Iconbox</text><text x="0" y="52" fill="#000000" font-size="5px" font-weight="bold" font-family="'Helvetica Neue', Helvetica, Arial-Unicode, Arial, Sans-serif">from the Noun Project</text></svg>