<svg xmlns:dc="http://purl.org/dc/elements/1.1/" xmlns:cc="http://creativecommons.org/ns#" 
xmlns:rdf="http://www.w3.org/1999/02/22-rdf-syntax-ns#" xmlns:svg="http://www.w3.org/2000/svg" 
xmlns="http://www.w3.org/2000/svg" xmlns:sodipodi="http://sodipodi.sourceforge.net/DTD/sodipodi-0.dtd" 
xmlns:inkscape="http://www.inkscape.org/namespaces/inkscape" 
viewBox="0 0 12.7 15.875" version="1.1" x="0px" y="0px">
<g transform="translate(0,-284.29998)">
<g transform="matrix(0.82046302,0,0,0.82046302,12637.531,-3065.6536)">
<path transform="matrix(0.26458333,0,0,0.26458333,0,284.29998)" 
d="m -58175.031,14363.557 a 15.334673,15.334673 0 0 0 -11.502,5.168 15.334673,15.334673 0 0 0 -24.707,17.925 59.090453,59.090453 0 0 0 24.23,22.793 1.0614274,1.0614274 0 0 0 0.961,0 59.090453,59.090453 0 0 0 24.223,-22.793 15.334673,15.334673 0 0 0 -13.205,-23.093 z m 0.02,1.988 a 13.334674,13.334674 0 0 1 11.463,20.094 57.090452,57.090452 0 0 1 -22.982,21.804 57.090452,57.090452 0 0 1 -22.981,-21.804 13.334674,13.334674 0 0 1 22.133,-14.793 1.0614274,1.0614274 0 0 0 1.693,0 13.334674,13.334674 0 0 1 10.674,-5.301 z" style="" fill="#000000" stroke="none"/></g></g><text x="0" y="27.7" fill="#000000" font-size="5px" font-weight="bold" font-family="'Helvetica Neue', Helvetica, Arial-Unicode, Arial, Sans-serif">Created by Phạm Thanh Lộc</text><text x="0" y="32.7" fill="#000000" font-size="5px" font-weight="bold" font-family="'Helvetica Neue', Helvetica, Arial-Unicode, Arial, Sans-serif">from the Noun Project</text></svg>