<svg xmlns="http://www.w3.org/2000/svg" data-name="Ebene 1" viewBox="0 0 24 30" x="0px" y="0px">
<title>Iconsset</title>
<path d="M20.08,9.62l-5.26-.8-2.36-5a.52.52,0,0,0-.91,0l-2.36,5-5.26.8a.5.5,0,0,0-.28.84l3.82,3.92-.9,5.54a.5.5,0,0,0,.74.52l4.7-2.6,4.7,2.6a.5.5,0,0,0,.53,0,.5.5,0,0,0,.21-.49l-.9-5.54,3.82-3.92a.5.5,0,0,0-.28-.84Zm-4.43,4.24a.5.5,0,0,0-.14.43l.78,4.77-4-2.23a.5.5,0,0,0-.48,0l-4,2.23.78-4.77a.5.5,0,0,0-.14-.43L5,10.46l4.57-.7A.5.5,0,0,0,10,9.48l2-4.3,2,4.3a.5.5,0,0,0,.38.28l4.57.7Z"/>
<text x="0" y="39" fill="#000000" font-size="5px" font-weight="bold" 
font-family="'Helvetica Neue', Helvetica, Arial-Unicode, Arial, Sans-serif">Created by Henning Gross</text>
<text x="0" y="44" fill="#000000" font-size="5px" font-weight="bold" font-family="'Helvetica Neue', Helvetica, Arial-Unicode, Arial, Sans-serif">from the Noun Project</text>
</svg>